# xmcd CD database file
#
# Track frame offsets:
#	150
#	22898
#	34703
#	55448
#	79288
#	97146
#	118405
#	140592
#	166810
#	180787
#	194942
#
# Disc length: 2929 seconds
#
# Revision: 0
# Processed by: cddbd v1.5.1PL0 Copyright (c) Steve Scherf et al.
# Submitted via: CDex 1.51
#
DISCID=9a0b6f0b
DTITLE=Christian Sievert - Amigo Brazil
DYEAR=1999
DGENRE=Jazz
TTITLE0=Samba Bruno
TTITLE1=Choros Vaganondo
TTITLE2=Barracao - O Morro Nao Tem Vez
TTITLE3=Magenta
TTITLE4=Samba Felice
TTITLE5=Morena Do Mar
TTITLE6=Saudade De Bahia
TTITLE7=Xingo
TTITLE8=Terezinha De Jesus - Samba Le Le - Atiret O Pau No Gato
TTITLE9=Samba Glænø
TTITLE10=Baeao
EXTD=YEAR: 1999
EXTT0=
EXTT1=
EXTT2=
EXTT3=
EXTT4=
EXTT5=
EXTT6=
EXTT7=
EXTT8=
EXTT9=
EXTT10=
PLAYORDER=
